<?xml version="1.0" encoding="UTF-8"?>
<svg id="Camada_1" xmlns="http://www.w3.org/2000/svg" version="1.1" viewBox="0 0 1080 1080">
  <!-- Generator: Adobe Illustrator 30.3.0, SVG Export Plug-In . SVG Version: 2.1.3 Build 182)  -->
  <defs>
    <style>
      .st0 {
        fill: #001d3b;
      }
    </style>
  </defs>
  <g>
    <g>
      <path class="st0" d="M280.49,472.61c-5.6,19.47-17.95,62.41-23.64,82.19-2.85-3.34-15.66-18.34-18.76-21.97-17.75,21.14-39.43,39.8-64.16,55.25l5.1,32.86-35.59,38.01-34.58-40.25c-12.35,4.16-25.11,7.64-38.22,10.36,19.07,23.64,44.1,42.27,72.8,53.59v34.59c-51-20.11-92.91-58.45-117.63-106.8,73.56-9.91,145.22-45.48,191.56-101.87l-16.48-19.29c23.83-5,56.01-11.74,79.6-16.68Z"/>
      <path class="st0" d="M165.17,538.46c-11.46,7.45-34.85,22.64-46.38,30.13l15.54-92.28h21.28l9.56,62.16Z"/>
      <path class="st0" d="M210.59,363.47H77.91l-18.17,32.99,1.34,2.62c-20.43,3.31-40.23,7.7-59.81,13.44.78,27.96-2.36,107.24,3.16,133.5,3.1,18.31,8.49,36.24,16.03,53.21,7.17-.93,21.65-2.82,28.83-3.76-7.95-16.37-13.28-33.57-15.93-51.86h65.44l8.97-34.24H31.53v-66.56c15.25-4.45,30.67-7.91,46.58-10.49l21.55,42.07,23.91-21.76,9.56,16.5h23.19l8.85-17.93,25.1,23.19c10.98-21.62,28.64-56.4,39.45-77.69l-19.12-33.23ZM136.71,427.03l-35.38,33.01c-11.75-17.05-25.6-46.38-30.87-62.39l11.03-22.48c8.8,12.99,21.36,25.38,32.92,35.1h0c12.33,10.36,22.3,16.75,22.3,16.75h0ZM143.44,421.44c-8.69-7.33-25.68-21.68-34.46-29.08,16.93-7.96,68.64-3.39,73.63,0-.26.21-20.83,16.58-21.74,17.31h0l-16.15,12.85-1.28-1.08ZM188.45,460.05c-.08-.08-35.3-32.95-35.38-33.02,11.25-6.4,45.52-35.28,55.22-51.85l11.03,22.48s-.05.13-.13.4c-6.05,17.64-18.55,43.99-30.74,61.99Z"/>
    </g>
    <path class="st0" d="M285.62,493.85c5.62,96.46-52.21,188.69-142.17,223.39v-16.9c56.16-22.05,100.18-69.29,118.15-126.82,2.97-9.44,5.26-19.18,6.82-29.16l17.2-50.51Z"/>
    <path class="st0" d="M261.59,573.53c-17.97,57.52-61.99,104.76-118.15,126.82v-17.68c51.99-20.37,92.15-65.5,106.17-119.63l11.98,10.5Z"/>
    <path class="st0" d="M285.62,412.52v48.26c-3.63.71-11.13,2.19-14.79,2.91v-36.37c-12.97-3.8-26.05-6.94-39.38-9.52l7.17-16.49c15.91,2.98,31.59,6.68,47,11.21Z"/>
    <path class="st0" d="M270.83,427.32v36.37l-15.47,3.05v-23.93c-10.24-3-20.84-5.6-31.42-7.74l7.51-17.27c13.33,2.58,26.42,5.72,39.38,9.52Z"/>
  </g>
  <g>
    <g>
      <path class="st0" d="M459.28,536.12v28.07h-117.02v-151.13h114.21v28.07h-79.45v32.82h70.17v27.2h-70.17v34.98h82.26Z"/>
      <path class="st0" d="M489.5,413.05h34.98v122.63h75.78v28.5h-110.76v-151.13Z"/>
      <path class="st0" d="M622.28,413.05h34.98v122.63h75.78v28.5h-110.76v-151.13Z"/>
      <path class="st0" d="M755.06,413.05h34.98v151.13h-34.98v-151.13Z"/>
      <path class="st0" d="M859.55,441.55h-48.36v-28.5h131.7v28.5h-48.36v122.63h-34.98v-122.63Z"/>
      <path class="st0" d="M1081.07,536.12v28.07h-117.02v-151.13h114.21v28.07h-79.45v32.82h70.17v27.2h-70.17v34.98h82.26Z"/>
    </g>
    <g>
      <path class="st0" d="M346.36,663.6c-2.73-2.71-4.09-6.58-4.09-11.62v-19.21h7.94v18.92c0,6.14,2.55,9.21,7.65,9.21,2.48,0,4.38-.74,5.68-2.23,1.31-1.48,1.96-3.81,1.96-6.98v-18.92h7.84v19.21c0,5.03-1.37,8.9-4.09,11.62-2.73,2.71-6.54,4.07-11.44,4.07s-8.72-1.35-11.44-4.07Z"/>
      <path class="st0" d="M413.18,632.77v34.31h-6.52l-17.1-20.83v20.83h-7.84v-34.31h6.57l17.05,20.83v-20.83h7.84Z"/>
      <path class="st0" d="M421.85,632.77h7.94v34.31h-7.94v-34.31Z"/>
      <path class="st0" d="M446.41,639.14v9.07h15.88v6.37h-15.88v12.5h-7.94v-34.31h25.93v6.37h-17.99Z"/>
      <path class="st0" d="M476.96,665.36c-2.86-1.54-5.1-3.65-6.71-6.35-1.62-2.7-2.43-5.73-2.43-9.09s.81-6.4,2.43-9.09c1.62-2.69,3.85-4.81,6.71-6.34,2.86-1.54,6.07-2.3,9.63-2.3s6.76.77,9.61,2.3c2.84,1.54,5.08,3.65,6.71,6.34,1.63,2.7,2.45,5.73,2.45,9.09s-.82,6.39-2.45,9.09c-1.63,2.69-3.87,4.81-6.71,6.35s-6.05,2.3-9.61,2.3-6.77-.77-9.63-2.3ZM492.08,659.51c1.63-.93,2.91-2.23,3.85-3.9.93-1.67,1.4-3.56,1.4-5.68s-.47-4.02-1.4-5.69c-.93-1.67-2.21-2.97-3.85-3.9-1.63-.93-3.46-1.4-5.49-1.4s-3.86.47-5.49,1.4c-1.63.93-2.91,2.23-3.85,3.9-.93,1.67-1.4,3.56-1.4,5.69s.46,4.02,1.4,5.68c.93,1.67,2.21,2.97,3.85,3.9s3.46,1.4,5.49,1.4,3.85-.47,5.49-1.4Z"/>
      <path class="st0" d="M533.74,667.08l-6.62-9.56h-7.3v9.56h-7.94v-34.31h14.85c3.04,0,5.67.51,7.92,1.52,2.24,1.01,3.96,2.45,5.17,4.31s1.81,4.07,1.81,6.62-.61,4.75-1.84,6.59c-1.23,1.85-2.97,3.26-5.22,4.24l7.7,11.03h-8.53ZM531.73,640.78c-1.24-1.03-3.05-1.54-5.44-1.54h-6.47v11.96h6.47c2.39,0,4.2-.52,5.44-1.57,1.24-1.04,1.86-2.51,1.86-4.41s-.62-3.41-1.86-4.44Z"/>
      <path class="st0" d="M579.67,667.08l-.05-20.58-10.09,16.96h-3.58l-10.05-16.52v20.14h-7.45v-34.31h6.57l12.84,21.32,12.65-21.32h6.52l.1,34.31h-7.45Z"/>
      <path class="st0" d="M622.35,660.71v6.37h-26.56v-34.31h25.93v6.37h-18.04v7.45h15.93v6.17h-15.93v7.94h18.67Z"/>
      <path class="st0" d="M632.62,666.56c-2.53-.74-4.57-1.69-6.1-2.87l2.69-5.98c1.47,1.08,3.22,1.94,5.25,2.6,2.02.66,4.05.98,6.07.98,2.25,0,3.92-.33,5-1,1.08-.67,1.62-1.56,1.62-2.67,0-.82-.32-1.5-.96-2.03-.64-.54-1.45-.97-2.45-1.3-1-.33-2.34-.68-4.04-1.08-2.62-.62-4.76-1.24-6.42-1.86-1.66-.62-3.09-1.62-4.29-2.99-1.19-1.37-1.79-3.2-1.79-5.49,0-1.99.54-3.8,1.62-5.42,1.08-1.62,2.7-2.9,4.88-3.85s4.83-1.42,7.96-1.42c2.19,0,4.33.26,6.42.78,2.09.52,3.92,1.27,5.49,2.25l-2.45,6.03c-3.17-1.8-6.34-2.69-9.51-2.69-2.22,0-3.86.36-4.93,1.08-1.06.72-1.59,1.67-1.59,2.84s.61,2.05,1.84,2.62,3.09,1.14,5.61,1.69c2.61.62,4.75,1.24,6.42,1.86,1.67.62,3.1,1.6,4.29,2.94,1.19,1.34,1.79,3.15,1.79,5.44,0,1.96-.55,3.75-1.64,5.37-1.1,1.62-2.74,2.9-4.93,3.85-2.19.95-4.85,1.42-7.99,1.42-2.71,0-5.33-.37-7.87-1.1Z"/>
      <path class="st0" d="M698.19,634.29c2.24,1.01,3.96,2.45,5.17,4.31s1.81,4.07,1.81,6.62-.6,4.71-1.81,6.59c-1.21,1.88-2.93,3.32-5.17,4.31-2.24,1-4.88,1.5-7.92,1.5h-6.91v9.46h-7.94v-34.31h14.85c3.04,0,5.67.51,7.92,1.52ZM695.27,649.61c1.24-1.03,1.86-2.49,1.86-4.39s-.62-3.41-1.86-4.44c-1.24-1.03-3.05-1.54-5.44-1.54h-6.47v11.91h6.47c2.39,0,4.2-.51,5.44-1.54Z"/>
      <path class="st0" d="M733.21,667.08l-6.62-9.56h-7.3v9.56h-7.94v-34.31h14.85c3.04,0,5.67.51,7.92,1.52,2.24,1.01,3.96,2.45,5.17,4.31s1.81,4.07,1.81,6.62-.61,4.75-1.84,6.59c-1.23,1.85-2.97,3.26-5.22,4.24l7.7,11.03h-8.53ZM731.2,640.78c-1.24-1.03-3.05-1.54-5.44-1.54h-6.47v11.96h6.47c2.39,0,4.2-.52,5.44-1.57,1.24-1.04,1.86-2.51,1.86-4.41s-.62-3.41-1.86-4.44Z"/>
      <path class="st0" d="M754.89,665.36c-2.86-1.54-5.1-3.65-6.71-6.35-1.62-2.7-2.43-5.73-2.43-9.09s.81-6.4,2.43-9.09c1.62-2.69,3.85-4.81,6.71-6.34s6.07-2.3,9.63-2.3,6.76.77,9.61,2.3,5.08,3.65,6.71,6.34c1.63,2.7,2.45,5.73,2.45,9.09s-.82,6.39-2.45,9.09c-1.63,2.69-3.87,4.81-6.71,6.35s-6.05,2.3-9.61,2.3-6.77-.77-9.63-2.3ZM770.01,659.51c1.63-.93,2.91-2.23,3.85-3.9.93-1.67,1.4-3.56,1.4-5.68s-.47-4.02-1.4-5.69c-.93-1.67-2.21-2.97-3.85-3.9-1.63-.93-3.46-1.4-5.49-1.4s-3.86.47-5.49,1.4-2.91,2.23-3.85,3.9c-.93,1.67-1.4,3.56-1.4,5.69s.46,4.02,1.4,5.68c.93,1.67,2.21,2.97,3.85,3.9s3.46,1.4,5.49,1.4,3.85-.47,5.49-1.4Z"/>
      <path class="st0" d="M797.75,639.14v9.07h15.88v6.37h-15.88v12.5h-7.94v-34.31h25.93v6.37h-17.99Z"/>
      <path class="st0" d="M821.67,632.77h7.94v34.31h-7.94v-34.31Z"/>
      <path class="st0" d="M841.69,666.56c-2.53-.74-4.57-1.69-6.1-2.87l2.69-5.98c1.47,1.08,3.22,1.94,5.25,2.6,2.02.66,4.05.98,6.07.98,2.25,0,3.92-.33,5-1,1.08-.67,1.62-1.56,1.62-2.67,0-.82-.32-1.5-.96-2.03-.64-.54-1.45-.97-2.45-1.3-1-.33-2.34-.68-4.04-1.08-2.62-.62-4.76-1.24-6.42-1.86-1.66-.62-3.09-1.62-4.29-2.99-1.19-1.37-1.79-3.2-1.79-5.49,0-1.99.54-3.8,1.62-5.42,1.08-1.62,2.7-2.9,4.88-3.85,2.17-.95,4.83-1.42,7.96-1.42,2.19,0,4.33.26,6.42.78,2.09.52,3.92,1.27,5.49,2.25l-2.45,6.03c-3.17-1.8-6.34-2.69-9.51-2.69-2.22,0-3.86.36-4.93,1.08s-1.59,1.67-1.59,2.84.61,2.05,1.84,2.62c1.23.57,3.09,1.14,5.61,1.69,2.61.62,4.75,1.24,6.42,1.86,1.67.62,3.1,1.6,4.29,2.94s1.79,3.15,1.79,5.44c0,1.96-.55,3.75-1.64,5.37-1.1,1.62-2.74,2.9-4.93,3.85-2.19.95-4.85,1.42-7.99,1.42-2.71,0-5.33-.37-7.87-1.1Z"/>
      <path class="st0" d="M873.49,666.56c-2.53-.74-4.57-1.69-6.1-2.87l2.69-5.98c1.47,1.08,3.22,1.94,5.25,2.6,2.02.66,4.05.98,6.07.98,2.25,0,3.92-.33,5-1,1.08-.67,1.62-1.56,1.62-2.67,0-.82-.32-1.5-.96-2.03-.64-.54-1.45-.97-2.45-1.3-1-.33-2.34-.68-4.04-1.08-2.62-.62-4.76-1.24-6.42-1.86-1.66-.62-3.09-1.62-4.29-2.99-1.19-1.37-1.79-3.2-1.79-5.49,0-1.99.54-3.8,1.62-5.42,1.08-1.62,2.7-2.9,4.88-3.85,2.17-.95,4.83-1.42,7.96-1.42,2.19,0,4.33.26,6.42.78,2.09.52,3.92,1.27,5.49,2.25l-2.45,6.03c-3.17-1.8-6.34-2.69-9.51-2.69-2.22,0-3.86.36-4.93,1.08s-1.59,1.67-1.59,2.84.61,2.05,1.84,2.62,3.09,1.14,5.61,1.69c2.61.62,4.75,1.24,6.42,1.86,1.67.62,3.1,1.6,4.29,2.94,1.19,1.34,1.79,3.15,1.79,5.44,0,1.96-.55,3.75-1.64,5.37-1.1,1.62-2.74,2.9-4.93,3.85-2.19.95-4.85,1.42-7.99,1.42-2.71,0-5.33-.37-7.87-1.1Z"/>
      <path class="st0" d="M901.89,632.77h7.94v34.31h-7.94v-34.31Z"/>
      <path class="st0" d="M925.49,665.36c-2.86-1.54-5.1-3.65-6.71-6.35-1.62-2.7-2.43-5.73-2.43-9.09s.81-6.4,2.43-9.09c1.62-2.69,3.85-4.81,6.71-6.34,2.86-1.54,6.07-2.3,9.63-2.3s6.76.77,9.61,2.3c2.84,1.54,5.08,3.65,6.71,6.34,1.63,2.7,2.45,5.73,2.45,9.09s-.82,6.39-2.45,9.09c-1.63,2.69-3.87,4.81-6.71,6.35-2.84,1.54-6.05,2.3-9.61,2.3s-6.77-.77-9.63-2.3ZM940.61,659.51c1.63-.93,2.91-2.23,3.85-3.9.93-1.67,1.4-3.56,1.4-5.68s-.47-4.02-1.4-5.69c-.93-1.67-2.21-2.97-3.85-3.9s-3.46-1.4-5.49-1.4-3.86.47-5.49,1.4c-1.63.93-2.91,2.23-3.85,3.9-.93,1.67-1.4,3.56-1.4,5.69s.46,4.02,1.4,5.68c.93,1.67,2.21,2.97,3.85,3.9s3.46,1.4,5.49,1.4,3.85-.47,5.49-1.4Z"/>
      <path class="st0" d="M991.87,632.77v34.31h-6.52l-17.1-20.83v20.83h-7.84v-34.31h6.57l17.05,20.83v-20.83h7.84Z"/>
      <path class="st0" d="M1023.14,659.73h-15.93l-3.04,7.35h-8.14l15.29-34.31h7.84l15.34,34.31h-8.33l-3.04-7.35ZM1020.65,653.7l-5.44-13.13-5.44,13.13h10.88Z"/>
      <path class="st0" d="M1038.63,632.77h7.94v34.31h-7.94v-34.31Z"/>
      <path class="st0" d="M1058.65,666.56c-2.53-.74-4.57-1.69-6.1-2.87l2.69-5.98c1.47,1.08,3.22,1.94,5.25,2.6,2.02.66,4.05.98,6.07.98,2.25,0,3.92-.33,5-1,1.08-.67,1.62-1.56,1.62-2.67,0-.82-.32-1.5-.96-2.03-.64-.54-1.45-.97-2.45-1.3-1-.33-2.34-.68-4.04-1.08-2.62-.62-4.76-1.24-6.42-1.86-1.66-.62-3.09-1.62-4.29-2.99-1.19-1.37-1.79-3.2-1.79-5.49,0-1.99.54-3.8,1.62-5.42,1.08-1.62,2.7-2.9,4.88-3.85s4.83-1.42,7.96-1.42c2.19,0,4.33.26,6.42.78,2.09.52,3.92,1.27,5.49,2.25l-2.45,6.03c-3.17-1.8-6.34-2.69-9.51-2.69-2.22,0-3.86.36-4.93,1.08s-1.59,1.67-1.59,2.84.61,2.05,1.84,2.62,3.09,1.14,5.61,1.69c2.61.62,4.75,1.24,6.42,1.86,1.67.62,3.1,1.6,4.29,2.94,1.19,1.34,1.79,3.15,1.79,5.44,0,1.96-.55,3.75-1.64,5.37-1.1,1.62-2.74,2.9-4.93,3.85-2.19.95-4.85,1.42-7.99,1.42-2.71,0-5.33-.37-7.87-1.1Z"/>
    </g>
    <g>
      <g>
        <polygon class="st0" points="342.26 599.75 679.25 602.42 679.25 597.08 342.26 599.75"/>
        <polygon class="st0" points="1081.07 599.75 744.08 602.42 744.08 597.08 1081.07 599.75"/>
      </g>
      <path class="st0" d="M694.31,594.23c.03-.12.01-.18,0-.26l.36-.03h12.05c.46,0,.85-.26,1-.7l3.79-11.64c.04-.11.13-.15.2-.14.05,0,.12.05.15.14l3.79,11.64c.14.44.53.7,1,.7h12.16c.12,0,.22.07.23.14.01.05-.01.15-.09.21l-9.88,7.18c-.35.25-.52.68-.38,1.11l3.78,11.66c.03.09-.01.22-.06.24s-.14.03-.22-.02l-9.85-7.15c-.42-.31-.88-.31-1.3,0l-9.85,7.15c-.08.06-.17.04-.21.02s-.09-.15-.06-.24l3.78-11.66c.14-.42-.03-.86-.38-1.11l-9.99-7.24Z"/>
    </g>
  </g>
</svg>